<svg width="128" height="128" viewBox="0 0 128 128" fill="none" xmlns="http://www.w3.org/2000/svg">
<rect width="128" height="128" fill="#00C7E6"/>
<path d="M40.282 109.662H38.163C36.411 109.662 34.977 108.228 34.977 106.476V93.9279C34.977 92.1759 36.411 90.7419 38.163 90.7419H40.282C42.034 90.7419 43.468 92.1759 43.468 93.9279V106.476C43.468 108.228 42.034 109.662 40.282 109.662Z" fill="#5243AA"/>
<path d="M89.032 109.662H86.913C85.161 109.662 83.727 108.228 83.727 106.476V93.9279C83.727 92.1759 85.161 90.7419 86.913 90.7419H89.032C90.784 90.7419 92.218 92.1759 92.218 93.9279V106.476C92.218 108.228 90.784 109.662 89.032 109.662Z" fill="#5243AA"/>
<path d="M63.842 104.717C87.9338 104.717 107.464 91.2798 107.464 74.704C107.464 58.1283 87.9338 44.691 63.842 44.691C39.7502 44.691 20.22 58.1283 20.22 74.704C20.22 91.2798 39.7502 104.717 63.842 104.717Z" fill="#6554C0"/>
<path d="M63.964 97.67C91.7467 97.67 114.269 84.2328 114.269 67.657C114.269 51.0813 91.7467 37.644 63.964 37.644C36.1813 37.644 13.659 51.0813 13.659 67.657C13.659 84.2328 36.1813 97.67 63.964 97.67Z" fill="#8777D9"/>
<path d="M94.762 48.578C94.801 47.956 94.827 47.325 94.827 46.677C94.827 29.43 80.846 15.449 63.599 15.449C46.694 15.449 32.936 28.884 32.397 45.657H32.371V53.925H32.393C32.659 63.636 37.455 70.366 44.769 74.291L82.434 74.293C89.963 70.256 94.827 63.249 94.827 53.076C94.827 52.428 94.801 51.786 94.762 51.148V48.578Z" fill="white"/>
<path opacity="0.15" d="M32.477 44.258C32.441 44.722 32.412 45.188 32.397 45.657H32.371V53.925H32.393C32.849 70.586 46.64 78.472 63.599 78.472C80.846 78.472 94.827 70.323 94.827 53.077C94.827 52.429 94.801 51.787 94.762 51.149V48.579C94.801 47.957 94.827 47.326 94.827 46.678C94.827 45.743 94.778 44.82 94.698 43.907C86.197 39.986 75.541 37.646 63.964 37.646C52.042 37.644 41.097 40.123 32.477 44.258Z" fill="#5243AA"/>
<path d="M63.599 28.2531C53.24 28.2531 44.765 36.7281 44.765 47.0871V53.1791V68.1971V74.2891C50.001 77.0971 56.524 78.4711 63.599 78.4711C70.674 78.4711 77.197 77.0971 82.433 74.2891V68.1971V53.1791V47.0871C82.433 36.7281 73.958 28.2531 63.599 28.2531Z" fill="#00C7E6"/>
<path d="M63.86 61.8739C70.0119 61.8739 74.999 56.8868 74.999 50.7349C74.999 44.583 70.0119 39.5959 63.86 39.5959C57.7081 39.5959 52.721 44.583 52.721 50.7349C52.721 56.8868 57.7081 61.8739 63.86 61.8739Z" fill="white"/>
<path d="M63.472 55.0259C65.912 55.0259 67.89 53.0479 67.89 50.6079C67.89 48.168 65.912 46.1899 63.472 46.1899C61.032 46.1899 59.054 48.168 59.054 50.6079C59.054 53.0479 61.032 55.0259 63.472 55.0259Z" fill="#403294"/>
</svg>
