<svg width="128" height="128" viewBox="0 0 128 128" fill="none" xmlns="http://www.w3.org/2000/svg">
<g clip-path="url(#clip0_48_30)">
<rect width="128" height="128" fill="#2684FF"/>
<mask id="mask0_48_30" style="mask-type:alpha" maskUnits="userSpaceOnUse" x="0" y="0" width="128" height="128">
<path d="M128 0H0V128H128V0Z" fill="white"/>
</mask>
<g mask="url(#mask0_48_30)">
<path d="M128 0H0V128H128V0Z" fill="#2684FF"/>
<path d="M101.421 74.861C101.421 66.213 95.025 59.077 86.708 57.877C87.596 55.293 88.102 52.531 88.102 49.645C88.102 39.039 80.237 28.953 70.814 25.038C63.924 26.73 58.139 31.23 54.752 37.266C51.877 33.909 47.615 31.774 42.849 31.774C34.191 31.774 27.172 38.793 27.172 47.451C27.172 49.501 27.577 51.454 28.293 53.25C19.264 54.992 12.442 62.927 12.442 72.464C12.442 83.277 21.208 92.043 32.021 92.043H88.259C95.569 89.697 101.421 82.607 101.421 74.861Z" fill="white"/>
<path d="M70.35 65.699H55.753C55.442 65.699 55.189 65.951 55.189 66.263C55.189 69.036 56.625 71.474 58.794 72.874C58.815 72.888 58.837 72.901 58.858 72.915H58.874C60.085 73.677 61.514 74.125 63.051 74.125C64.592 74.125 66.026 73.675 67.239 72.908L67.243 72.915C69.448 71.522 70.913 69.064 70.913 66.263C70.914 65.952 70.661 65.699 70.35 65.699Z" fill="#FF4E4A"/>
<path d="M51.722 61.9C53.296 61.9 54.572 60.624 54.572 59.05C54.572 57.476 53.296 56.2 51.722 56.2C50.148 56.2 48.872 57.476 48.872 59.05C48.872 60.624 50.148 61.9 51.722 61.9Z" fill="#333333"/>
<path d="M74.379 61.9C75.953 61.9 77.229 60.624 77.229 59.05C77.229 57.476 75.953 56.2 74.379 56.2C72.805 56.2 71.529 57.476 71.529 59.05C71.529 60.624 72.805 61.9 74.379 61.9Z" fill="#333333"/>
<path d="M100.817 57.876C101.705 55.292 102.211 52.53 102.211 49.644C102.211 35.644 90.862 24.294 76.861 24.294C74.233 24.294 71.705 24.707 69.322 25.451C79.617 28.675 87.087 38.286 87.087 49.644C87.087 52.53 86.582 55.292 85.693 57.876C94.009 59.076 100.406 66.212 100.406 74.86C100.406 84.349 92.714 92.042 83.224 92.042H98.347C107.836 92.042 115.529 84.35 115.529 74.86C115.53 66.212 109.133 59.076 100.817 57.876Z" fill="#B3D4FF"/>
</g>
</g>
<defs>
<clipPath id="clip0_48_30">
<rect width="128" height="128" fill="white"/>
</clipPath>
</defs>
</svg>
