<svg width="128" height="128" viewBox="0 0 128 128" fill="none" xmlns="http://www.w3.org/2000/svg">
<g clip-path="url(#clip0_1_349)">
<rect width="128" height="128" fill="#FF5630"/>
<mask id="mask0_1_349" style="mask-type:alpha" maskUnits="userSpaceOnUse" x="0" y="0" width="128" height="128">
<path d="M128 0H0V128H128V0Z" fill="white"/>
</mask>
<g mask="url(#mask0_1_349)">
<path d="M131.3 45.7C129.5 39.5 132.7 33.7 129.2 28.5H37.2C33.5 28.5 30.5 31.5 30.5 35.2V45.7H131.3Z" fill="#EBF2F9"/>
<path d="M42.6 40.3C44.2568 40.3 45.6 38.9569 45.6 37.3C45.6 35.6432 44.2568 34.3 42.6 34.3C40.9431 34.3 39.6 35.6432 39.6 37.3C39.6 38.9569 40.9431 40.3 42.6 40.3Z" fill="#FF5630"/>
<path d="M51.2 40.3C52.8569 40.3 54.2 38.9569 54.2 37.3C54.2 35.6432 52.8569 34.3 51.2 34.3C49.5432 34.3 48.2 35.6432 48.2 37.3C48.2 38.9569 49.5432 40.3 51.2 40.3Z" fill="#FFC400"/>
<path d="M59.7 40.3C61.3569 40.3 62.7 38.9569 62.7 37.3C62.7 35.6432 61.3569 34.3 59.7 34.3C58.0432 34.3 56.7 35.6432 56.7 37.3C56.7 38.9569 58.0432 40.3 59.7 40.3Z" fill="#00B8D9"/>
<path d="M129.9 128C129.9 128 131.9 51.3 130.1 45.4H50.7H48.7H41.5H39.5H32.5H30.5V133.3C37.5 138 129.9 128 129.9 128Z" fill="#253858"/>
<path d="M79.9 68.1999H43.6C41.4 68.1999 39.6 66.3999 39.6 64.1999C39.6 61.9999 41.4 60.2 43.6 60.2H80C82.2 60.2 84 61.9999 84 64.1999C83.9 66.3999 82.1 68.1999 79.9 68.1999Z" fill="#EBF2F9"/>
<path d="M97.4 68.1999H93.7C91.5 68.1999 89.7 66.3999 89.7 64.1999C89.7 61.9999 91.5 60.2 93.7 60.2H97.4C99.6 60.2 101.4 61.9999 101.4 64.1999C101.4 66.3999 99.6 68.1999 97.4 68.1999Z" fill="#4C9AFF"/>
<path d="M55.8 85.7H43.6C41.4 85.7 39.6 83.9 39.6 81.7C39.6 79.5 41.4 77.7 43.6 77.7H55.8C58 77.7 59.8 79.5 59.8 81.7C59.7 83.9 57.9 85.7 55.8 85.7Z" fill="#FF5630"/>
<path d="M67.5 103.2H43.5C41.3 103.2 39.5 101.4 39.5 99.2C39.5 97 41.3 95.2 43.5 95.2H67.5C69.7 95.2 71.5 97 71.5 99.2C71.5 101.4 69.7 103.2 67.5 103.2Z" fill="#EBF2F9"/>
<path d="M84.1 103.2H81.5C79.3 103.2 77.5 101.4 77.5 99.2C77.5 97 79.3 95.2 81.5 95.2H84.1C86.3 95.2 88.1 97 88.1 99.2C88.1 101.4 86.3 103.2 84.1 103.2Z" fill="#FF4E4A"/>
<path d="M106.4 85.7H69.7C67.5 85.7 65.7 83.9 65.7 81.7C65.7 79.5 67.5 77.7 69.7 77.7H106.3C108.5 77.7 110.3 79.5 110.3 81.7C110.4 83.9 108.6 85.7 106.4 85.7Z" fill="#00B8D9"/>
</g>
</g>
<defs>
<clipPath id="clip0_1_349">
<rect width="128" height="128" fill="white"/>
</clipPath>
</defs>
</svg>
