<svg width="128" height="128" viewBox="0 0 128 128" fill="none" xmlns="http://www.w3.org/2000/svg">
<g clip-path="url(#clip0_1_458)">
<rect width="128" height="128" fill="#00C7E6"/>
<mask id="mask0_1_458" style="mask-type:alpha" maskUnits="userSpaceOnUse" x="0" y="0" width="128" height="128">
<path d="M128 0H0V128H128V0Z" fill="white"/>
</mask>
<g mask="url(#mask0_1_458)">
<path d="M128 0H0V128H128V0Z" fill="#00C7E6"/>
<path d="M64.81 37.247H63.461H34.351L42.3 105.758C42.448 107.083 43.568 108.085 44.901 108.085H63.46H64.809H82.197C84.197 108.085 85.877 106.582 86.099 104.594L93.918 37.246H64.81V37.247Z" fill="#FF4E4A"/>
<path opacity="0.1" d="M63.461 37.522H34.515V38.983L42.301 106.034C42.449 107.359 43.569 108.361 44.902 108.361H63.461H64.81V37.522H63.461Z" fill="#211618"/>
<path opacity="0.1" d="M40.809 92.906H87.457L87.923 88.892H40.344L40.809 92.906Z" fill="#211618"/>
<path opacity="0.1" d="M93.483 41.1499L93.919 37.2469H64.81H63.461H34.352L34.787 41.1499H93.483Z" fill="#211618"/>
<path d="M68.729 52.931H59.542H34.372C33.589 52.931 32.981 53.614 33.072 54.392L37.301 87.736C37.378 88.395 37.937 88.892 38.601 88.892H59.542H68.729H89.67C90.334 88.892 90.892 88.395 90.97 87.736L95.199 54.392C95.29 53.614 94.682 52.931 93.899 52.931H68.729Z" fill="white"/>
<path opacity="0.2" d="M38.601 88.892H58.901V52.931H34.371C33.588 52.931 32.98 53.614 33.071 54.392L37.3 87.736C37.378 88.395 37.937 88.892 38.601 88.892Z" fill="#4AC6C6"/>
<path d="M64.193 82.382C70.5255 82.382 75.659 77.2484 75.659 70.916C75.659 64.5835 70.5255 59.45 64.193 59.45C57.8605 59.45 52.727 64.5835 52.727 70.916C52.727 77.2484 57.8605 82.382 64.193 82.382Z" fill="#00B8D9"/>
<path d="M86.005 20.925C85.532 20.076 84.68 19.557 83.761 19.557H66.266H62.34H44.846C43.927 19.557 43.075 20.076 42.602 20.925L37.802 29.536H62.34H66.266H90.804L86.005 20.925Z" fill="#2A5083"/>
<path d="M95.191 37.247H33.416C31.704 37.247 30.303 35.846 30.303 34.134V31.936C30.303 30.224 31.704 28.823 33.416 28.823H95.192C96.904 28.823 98.305 30.224 98.305 31.936V34.134C98.305 35.846 96.904 37.247 95.191 37.247Z" fill="#194063"/>
<path opacity="0.1" d="M64.81 19.557H62.34H44.845C43.926 19.557 43.074 20.076 42.601 20.925L38.199 28.823H34.514C32.197 28.823 30.302 30.719 30.302 33.035C30.302 35.352 32.198 37.247 34.514 37.247H64.81V19.557Z" fill="#211618"/>
</g>
</g>
<defs>
<clipPath id="clip0_1_458">
<rect width="128" height="128" fill="white"/>
</clipPath>
</defs>
</svg>
