<svg width="128" height="128" viewBox="0 0 128 128" fill="none" xmlns="http://www.w3.org/2000/svg">
<g clip-path="url(#clip0_49_99)">
<mask id="mask0_49_99" style="mask-type:alpha" maskUnits="userSpaceOnUse" x="0" y="0" width="128" height="128">
<path d="M128 0H0V128H128V0Z" fill="white"/>
</mask>
<g mask="url(#mask0_49_99)">
<path d="M128 0H0V128H128V0Z" fill="#FFC400"/>
<path d="M64 127.715C99.2827 127.715 127.885 99.1127 127.885 63.83C127.885 28.5473 99.2827 -0.0549927 64 -0.0549927C28.7173 -0.0549927 0.11499 28.5473 0.11499 63.83C0.11499 99.1127 28.7173 127.715 64 127.715Z" fill="#FFC400"/>
<path d="M42.242 111.759C39.888 111.759 37.962 109.833 37.962 107.479V22.169C37.962 19.815 39.888 17.889 42.242 17.889C44.596 17.889 46.522 19.815 46.522 22.169V107.479C46.522 109.833 44.596 111.759 42.242 111.759Z" fill="#2A5083"/>
<path d="M85.758 111.759C83.404 111.759 81.478 109.833 81.478 107.479V22.169C81.478 19.815 83.404 17.889 85.758 17.889C88.112 17.889 90.038 19.815 90.038 22.169V107.479C90.038 109.833 88.112 111.759 85.758 111.759Z" fill="#2A5083"/>
<path d="M37.962 97.996V95.868C37.962 94.099 39.409 92.652 41.178 92.652H86.823C88.592 92.652 90.039 94.099 90.039 95.868V97.996C90.039 99.765 88.592 101.212 86.823 101.212H41.178C39.409 101.211 37.962 99.764 37.962 97.996Z" fill="#2A5083"/>
<path d="M102.938 31.115C102.714 28.274 100.343 26.082 97.493 26.082H71.283H56.717H30.508C27.658 26.082 25.287 28.273 25.063 31.115L21.373 77.849C21.122 81.025 23.632 83.741 26.818 83.741H56.717H71.283H101.181C104.367 83.741 106.877 81.025 106.626 77.849L102.938 31.115Z" fill="white"/>
<path d="M32.879 75.424H95.54C97.911 75.424 99.099 72.557 97.422 70.88L84.381 57.839C83.359 56.817 81.709 56.797 80.663 57.794L71.624 66.402C70.6 67.377 68.992 67.382 67.963 66.412L50.668 50.119C49.65 49.16 48.062 49.152 47.035 50.102L31.439 64.53C30.934 64.997 30.629 65.642 30.589 66.329L30.222 72.607C30.132 74.135 31.347 75.424 32.879 75.424Z" fill="#00B8D9"/>
<path d="M75.137 48.236C79.4106 48.236 82.875 44.7716 82.875 40.498C82.875 36.2244 79.4106 32.76 75.137 32.76C70.8634 32.76 67.399 36.2244 67.399 40.498C67.399 44.7716 70.8634 48.236 75.137 48.236Z" fill="#FFAB00"/>
<path d="M46.522 83.742H37.962V92.652H46.522V83.742Z" fill="#153A56"/>
<path d="M90.038 83.742H81.478V92.652H90.038V83.742Z" fill="#153A56"/>
</g>
</g>
<defs>
<clipPath id="clip0_49_99">
<rect width="128" height="128" fill="white"/>
</clipPath>
</defs>
</svg>
