<svg width="128" height="128" viewBox="0 0 128 128" fill="none" xmlns="http://www.w3.org/2000/svg">
<g clip-path="url(#clip0_48_43)">
<mask id="mask0_48_43" style="mask-type:alpha" maskUnits="userSpaceOnUse" x="0" y="0" width="128" height="128">
<path d="M128 0H0V128H128V0Z" fill="white"/>
</mask>
<g mask="url(#mask0_48_43)">
<path d="M128 0H0V128H128V0Z" fill="#FF5630"/>
<path d="M65.172 112.667C92.05 112.667 113.839 90.8781 113.839 64C113.839 37.122 92.05 15.333 65.172 15.333C38.294 15.333 16.505 37.122 16.505 64C16.505 90.8781 38.294 112.667 65.172 112.667Z" fill="#253858"/>
<path d="M50.961 37.484L50.952 37.488L47.272 35.244C46.241 34.615 45.612 33.495 45.612 32.287V26.393L45.622 26.391L45.619 26.386C41.92 28.145 38.451 30.548 35.389 33.61C32.327 36.672 29.924 40.141 28.165 43.84L28.306 43.908H33.991C35.199 43.908 36.319 44.537 36.948 45.568L38.927 48.814C39.043 49.004 39.211 49.157 39.412 49.253L61.074 59.679L61.459 59.294L50.961 37.484Z" fill="white"/>
<path d="M79.5849 89.503L79.5939 89.499L83.2739 91.743C84.3049 92.372 84.9339 93.492 84.9339 94.7V100.594L84.9239 100.596L84.9269 100.601C88.6259 98.842 92.0949 96.439 95.1569 93.377C98.2189 90.315 100.622 86.846 102.381 83.147L102.24 83.079H96.5549C95.3469 83.079 94.2269 82.45 93.5979 81.419L91.6189 78.173C91.5029 77.983 91.3349 77.83 91.1339 77.734L69.4719 67.308L69.0869 67.693L79.5849 89.503Z" fill="white"/>
<path d="M65.1719 84.4001C76.507 84.4001 85.6959 75.2111 85.6959 63.876C85.6959 52.541 76.507 43.3521 65.1719 43.3521C53.8369 43.3521 44.6479 52.541 44.6479 63.876C44.6479 75.2111 53.8369 84.4001 65.1719 84.4001Z" fill="#00C7E6"/>
<path d="M65.172 71.0049C69.1092 71.0049 72.301 67.8132 72.301 63.8759C72.301 59.9387 69.1092 56.7469 65.172 56.7469C61.2347 56.7469 58.043 59.9387 58.043 63.8759C58.043 67.8132 61.2347 71.0049 65.172 71.0049Z" fill="#6555C0"/>
</g>
</g>
<defs>
<clipPath id="clip0_48_43">
<rect width="128" height="128" fill="white"/>
</clipPath>
</defs>
</svg>
